<?xml version="1.0" encoding="UTF-8" standalone="no"?>
<!-- acceptance-schema-source-sha256: eb5bed048a8937a9e67f762b4e251f1d969768a5b2148cca246c939db67dcb20 -->
<!DOCTYPE svg PUBLIC "-//W3C//DTD SVG 1.1//EN"
 "http://www.w3.org/Graphics/SVG/1.1/DTD/svg11.dtd">
<!-- Generated by graphviz version 12.2.0 (0)
 -->
<!-- Title: crm Pages: 1 -->
<svg width="1709pt" height="996pt"
 viewBox="0.00 0.00 1709.40 996.40" xmlns="http://www.w3.org/2000/svg" xmlns:xlink="http://www.w3.org/1999/xlink">
<g id="graph0" class="graph" transform="scale(1 1) rotate(0) translate(25.2 971.2)">
<title>crm</title>
<polygon fill="white" stroke="none" points="-25.2,25.2 -25.2,-971.2 1684.2,-971.2 1684.2,25.2 -25.2,25.2"/>
<text text-anchor="start" x="774.67" y="-930.4" font-family="Helvetica,sans-Serif" font-size="14.00"> </text>
<text text-anchor="start" x="778.56" y="-930.4" font-family="Helvetica,sans-Serif" font-weight="bold" font-size="14.00">Contact identity</text>
<text text-anchor="start" x="609.78" y="-916.4" font-family="Helvetica,sans-Serif" font-size="12.00">Local tables show every column. Amber dashed arrows cross a domain boundary.</text>
<text text-anchor="start" x="1045.33" y="-916.4" font-family="Helvetica,sans-Serif" font-size="14.00"> </text>
<g id="clust1" class="cluster">
<title>cluster_local</title>
<path fill="white" stroke="#94a3b8" stroke-width="1.5" d="M20,-8C20,-8 1158,-8 1158,-8 1164,-8 1170,-14 1170,-20 1170,-20 1170,-890 1170,-890 1170,-896 1164,-902 1158,-902 1158,-902 20,-902 20,-902 14,-902 8,-896 8,-890 8,-890 8,-20 8,-20 8,-14 14,-8 20,-8"/>
<text text-anchor="middle" x="589" y="-885.4" font-family="Helvetica,sans-Serif" font-size="14.00">Contact identity</text>
</g>
<g id="clust2" class="cluster">
<title>cluster_external</title>
<path fill="white" stroke="#cbd5e1" d="M1190,-364C1190,-364 1639,-364 1639,-364 1645,-364 1651,-370 1651,-376 1651,-376 1651,-447.6 1651,-447.6 1651,-453.6 1645,-459.6 1639,-459.6 1639,-459.6 1190,-459.6 1190,-459.6 1184,-459.6 1178,-453.6 1178,-447.6 1178,-447.6 1178,-376 1178,-376 1178,-370 1184,-364 1190,-364"/>
<text text-anchor="middle" x="1414.5" y="-443" font-family="Helvetica,sans-Serif" font-size="14.00">External&#45;domain references — other relationships are intentionally omitted</text>
</g>
<!-- crm_people -->
<g id="node1" class="node">
<title>crm_people</title>
<polygon fill="#dbeafe" stroke="none" points="416.19,-500.2 416.19,-529 823.81,-529 823.81,-500.2 416.19,-500.2"/>
<polygon fill="none" stroke="#2563eb" points="416.19,-500.2 416.19,-529 823.81,-529 823.81,-500.2 416.19,-500.2"/>
<text text-anchor="start" x="558.15" y="-511.4" font-family="Helvetica,sans-Serif" font-weight="bold" font-size="14.00">public.crm_people</text>
<polygon fill="none" stroke="#2563eb" points="416.19,-471.4 416.19,-500.2 561.28,-500.2 561.28,-471.4 416.19,-471.4"/>
<text text-anchor="start" x="422.19" y="-481.6" font-family="Helvetica,sans-Serif" font-size="14.00">id PK</text>
<polygon fill="none" stroke="#2563eb" points="561.28,-471.4 561.28,-500.2 823.81,-500.2 823.81,-471.4 561.28,-471.4"/>
<text text-anchor="start" x="567.28" y="-481.6" font-family="Helvetica,sans-Serif" font-size="14.00">uuid NOT NULL</text>
<polygon fill="none" stroke="#2563eb" points="416.19,-442.6 416.19,-471.4 561.28,-471.4 561.28,-442.6 416.19,-442.6"/>
<text text-anchor="start" x="422.19" y="-452.8" font-family="Helvetica,sans-Serif" font-size="14.00">name</text>
<polygon fill="none" stroke="#2563eb" points="561.28,-442.6 561.28,-471.4 823.81,-471.4 823.81,-442.6 561.28,-442.6"/>
<text text-anchor="start" x="567.28" y="-452.8" font-family="Helvetica,sans-Serif" font-size="14.00">character varying NULL</text>
<polygon fill="none" stroke="#2563eb" points="416.19,-413.8 416.19,-442.6 561.28,-442.6 561.28,-413.8 416.19,-413.8"/>
<text text-anchor="start" x="422.19" y="-424" font-family="Helvetica,sans-Serif" font-size="14.00">city</text>
<polygon fill="none" stroke="#2563eb" points="561.28,-413.8 561.28,-442.6 823.81,-442.6 823.81,-413.8 561.28,-413.8"/>
<text text-anchor="start" x="567.28" y="-424" font-family="Helvetica,sans-Serif" font-size="14.00">character varying NULL</text>
<polygon fill="none" stroke="#2563eb" points="416.19,-385 416.19,-413.8 561.28,-413.8 561.28,-385 416.19,-385"/>
<text text-anchor="start" x="422.19" y="-395.2" font-family="Helvetica,sans-Serif" font-size="14.00">canonical_id</text>
<polygon fill="none" stroke="#2563eb" points="561.28,-385 561.28,-413.8 823.81,-413.8 823.81,-385 561.28,-385"/>
<text text-anchor="start" x="567.28" y="-395.2" font-family="Helvetica,sans-Serif" font-size="14.00">uuid NULL</text>
<polygon fill="none" stroke="#2563eb" points="416.19,-356.2 416.19,-385 561.28,-385 561.28,-356.2 416.19,-356.2"/>
<text text-anchor="start" x="422.19" y="-366.4" font-family="Helvetica,sans-Serif" font-size="14.00">preferred_address_id</text>
<polygon fill="none" stroke="#2563eb" points="561.28,-356.2 561.28,-385 823.81,-385 823.81,-356.2 561.28,-356.2"/>
<text text-anchor="start" x="567.28" y="-366.4" font-family="Helvetica,sans-Serif" font-size="14.00">uuid NULL</text>
<polygon fill="none" stroke="#2563eb" points="416.19,-327.4 416.19,-356.2 561.28,-356.2 561.28,-327.4 416.19,-327.4"/>
<text text-anchor="start" x="422.19" y="-337.6" font-family="Helvetica,sans-Serif" font-size="14.00">revision</text>
<polygon fill="none" stroke="#2563eb" points="561.28,-327.4 561.28,-356.2 823.81,-356.2 823.81,-327.4 561.28,-327.4"/>
<text text-anchor="start" x="567.28" y="-337.6" font-family="Helvetica,sans-Serif" font-size="14.00">integer NOT NULL</text>
<polygon fill="none" stroke="#2563eb" points="416.19,-298.6 416.19,-327.4 561.28,-327.4 561.28,-298.6 416.19,-298.6"/>
<text text-anchor="start" x="422.19" y="-308.8" font-family="Helvetica,sans-Serif" font-size="14.00">inserted_at</text>
<polygon fill="none" stroke="#2563eb" points="561.28,-298.6 561.28,-327.4 823.81,-327.4 823.81,-298.6 561.28,-298.6"/>
<text text-anchor="start" x="567.28" y="-308.8" font-family="Helvetica,sans-Serif" font-size="14.00">timestamp without time zone NOT NULL</text>
<polygon fill="none" stroke="#2563eb" points="416.19,-269.8 416.19,-298.6 561.28,-298.6 561.28,-269.8 416.19,-269.8"/>
<text text-anchor="start" x="422.19" y="-280" font-family="Helvetica,sans-Serif" font-size="14.00">updated_at</text>
<polygon fill="none" stroke="#2563eb" points="561.28,-269.8 561.28,-298.6 823.81,-298.6 823.81,-269.8 561.28,-269.8"/>
<text text-anchor="start" x="567.28" y="-280" font-family="Helvetica,sans-Serif" font-size="14.00">timestamp without time zone NOT NULL</text>
<polygon fill="none" stroke="#2563eb" points="415.19,-268.8 415.19,-530 824.81,-530 824.81,-268.8 415.19,-268.8"/>
</g>
<!-- crm_people&#45;&gt;crm_people -->
<g id="edge6" class="edge">
<title>crm_people&#45;&gt;crm_people</title>
<path fill="none" stroke="#64748b" d="M824.63,-427.18C850.65,-422.32 867.81,-413.06 867.81,-399.4 867.81,-387.23 854.2,-378.55 832.84,-373.37"/>
<polygon fill="#64748b" stroke="#64748b" points="833.47,-371 826.11,-371.93 832.44,-375.79 833.47,-371"/>
<text text-anchor="middle" x="906.86" y="-396.4" font-family="Helvetica,sans-Serif" font-size="10.00">canonical_id &#45;&gt; id</text>
</g>
<!-- crm_addresses -->
<g id="node2" class="node">
<title>crm_addresses</title>
<polygon fill="#dbeafe" stroke="none" points="281.7,-161 281.7,-189.8 626.3,-189.8 626.3,-161 281.7,-161"/>
<polygon fill="none" stroke="#2563eb" points="281.7,-161 281.7,-189.8 626.3,-189.8 626.3,-161 281.7,-161"/>
<text text-anchor="start" x="380.08" y="-172.2" font-family="Helvetica,sans-Serif" font-weight="bold" font-size="14.00">public.crm_addresses</text>
<polygon fill="none" stroke="#2563eb" points="281.7,-132.2 281.7,-161 363.77,-161 363.77,-132.2 281.7,-132.2"/>
<text text-anchor="start" x="287.7" y="-142.4" font-family="Helvetica,sans-Serif" font-size="14.00">id PK</text>
<polygon fill="none" stroke="#2563eb" points="363.77,-132.2 363.77,-161 626.3,-161 626.3,-132.2 363.77,-132.2"/>
<text text-anchor="start" x="369.77" y="-142.4" font-family="Helvetica,sans-Serif" font-size="14.00">uuid NOT NULL</text>
<polygon fill="none" stroke="#2563eb" points="281.7,-103.4 281.7,-132.2 363.77,-132.2 363.77,-103.4 281.7,-103.4"/>
<text text-anchor="start" x="287.7" y="-113.6" font-family="Helvetica,sans-Serif" font-size="14.00">person_id</text>
<polygon fill="none" stroke="#2563eb" points="363.77,-103.4 363.77,-132.2 626.3,-132.2 626.3,-103.4 363.77,-103.4"/>
<text text-anchor="start" x="369.77" y="-113.6" font-family="Helvetica,sans-Serif" font-size="14.00">uuid NOT NULL</text>
<polygon fill="none" stroke="#2563eb" points="281.7,-74.6 281.7,-103.4 363.77,-103.4 363.77,-74.6 281.7,-74.6"/>
<text text-anchor="start" x="287.7" y="-84.8" font-family="Helvetica,sans-Serif" font-size="14.00">email</text>
<polygon fill="none" stroke="#2563eb" points="363.77,-74.6 363.77,-103.4 626.3,-103.4 626.3,-74.6 363.77,-74.6"/>
<text text-anchor="start" x="369.77" y="-84.8" font-family="Helvetica,sans-Serif" font-size="14.00">character varying NOT NULL</text>
<polygon fill="none" stroke="#2563eb" points="281.7,-45.8 281.7,-74.6 363.77,-74.6 363.77,-45.8 281.7,-45.8"/>
<text text-anchor="start" x="287.7" y="-56" font-family="Helvetica,sans-Serif" font-size="14.00">inserted_at</text>
<polygon fill="none" stroke="#2563eb" points="363.77,-45.8 363.77,-74.6 626.3,-74.6 626.3,-45.8 363.77,-45.8"/>
<text text-anchor="start" x="369.77" y="-56" font-family="Helvetica,sans-Serif" font-size="14.00">timestamp without time zone NOT NULL</text>
<polygon fill="none" stroke="#2563eb" points="281.7,-17 281.7,-45.8 363.77,-45.8 363.77,-17 281.7,-17"/>
<text text-anchor="start" x="287.7" y="-27.2" font-family="Helvetica,sans-Serif" font-size="14.00">updated_at</text>
<polygon fill="none" stroke="#2563eb" points="363.77,-17 363.77,-45.8 626.3,-45.8 626.3,-17 363.77,-17"/>
<text text-anchor="start" x="369.77" y="-27.2" font-family="Helvetica,sans-Serif" font-size="14.00">timestamp without time zone NOT NULL</text>
<polygon fill="none" stroke="#2563eb" points="280.7,-16 280.7,-190.8 627.3,-190.8 627.3,-16 280.7,-16"/>
</g>
<!-- crm_people&#45;&gt;crm_addresses -->
<g id="edge7" class="edge">
<title>crm_people&#45;&gt;crm_addresses</title>
<path fill="none" stroke="#64748b" d="M463.83,-268.88C456.69,-258.33 450.43,-247.29 445.43,-235.8 440.42,-224.28 437.95,-211.65 437.17,-198.92"/>
<polygon fill="#64748b" stroke="#64748b" points="439.62,-198.97 436.94,-192.06 434.73,-199.13 439.62,-198.97"/>
<text text-anchor="middle" x="504.22" y="-226.8" font-family="Helvetica,sans-Serif" font-size="10.00">preferred_address_id &#45;&gt; id</text>
</g>
<!-- crm_addresses&#45;&gt;crm_people -->
<g id="edge2" class="edge">
<title>crm_addresses&#45;&gt;crm_people</title>
<path fill="none" stroke="#64748b" d="M549.85,-190.78C558.47,-201.31 566.42,-212.39 573,-223.8 579.75,-235.51 585.57,-248.21 590.56,-261.25"/>
<polygon fill="#64748b" stroke="#64748b" points="588.16,-261.82 592.88,-267.54 592.76,-260.13 588.16,-261.82"/>
<text text-anchor="middle" x="610.88" y="-226.8" font-family="Helvetica,sans-Serif" font-size="10.00">person_id &#45;&gt; id</text>
</g>
<!-- crm_sources -->
<g id="node3" class="node">
<title>crm_sources</title>
<polygon fill="#dbeafe" stroke="none" points="17.05,-485.8 17.05,-514.6 370.95,-514.6 370.95,-485.8 17.05,-485.8"/>
<polygon fill="none" stroke="#2563eb" points="17.05,-485.8 17.05,-514.6 370.95,-514.6 370.95,-485.8 17.05,-485.8"/>
<text text-anchor="start" x="127.86" y="-497" font-family="Helvetica,sans-Serif" font-weight="bold" font-size="14.00">public.crm_sources</text>
<polygon fill="none" stroke="#2563eb" points="17.05,-457 17.05,-485.8 108.42,-485.8 108.42,-457 17.05,-457"/>
<text text-anchor="start" x="23.05" y="-467.2" font-family="Helvetica,sans-Serif" font-size="14.00">id PK</text>
<polygon fill="none" stroke="#2563eb" points="108.42,-457 108.42,-485.8 370.95,-485.8 370.95,-457 108.42,-457"/>
<text text-anchor="start" x="114.42" y="-467.2" font-family="Helvetica,sans-Serif" font-size="14.00">uuid NOT NULL</text>
<polygon fill="none" stroke="#2563eb" points="17.05,-428.2 17.05,-457 108.42,-457 108.42,-428.2 17.05,-428.2"/>
<text text-anchor="start" x="23.05" y="-438.4" font-family="Helvetica,sans-Serif" font-size="14.00">address_id</text>
<polygon fill="none" stroke="#2563eb" points="108.42,-428.2 108.42,-457 370.95,-457 370.95,-428.2 108.42,-428.2"/>
<text text-anchor="start" x="114.42" y="-438.4" font-family="Helvetica,sans-Serif" font-size="14.00">uuid NOT NULL</text>
<polygon fill="none" stroke="#2563eb" points="17.05,-399.4 17.05,-428.2 108.42,-428.2 108.42,-399.4 17.05,-399.4"/>
<text text-anchor="start" x="23.05" y="-409.6" font-family="Helvetica,sans-Serif" font-size="14.00">source</text>
<polygon fill="none" stroke="#2563eb" points="108.42,-399.4 108.42,-428.2 370.95,-428.2 370.95,-399.4 108.42,-399.4"/>
<text text-anchor="start" x="114.42" y="-409.6" font-family="Helvetica,sans-Serif" font-size="14.00">character varying NOT NULL</text>
<polygon fill="none" stroke="#2563eb" points="17.05,-370.6 17.05,-399.4 108.42,-399.4 108.42,-370.6 17.05,-370.6"/>
<text text-anchor="start" x="23.05" y="-380.8" font-family="Helvetica,sans-Serif" font-size="14.00">external_key</text>
<polygon fill="none" stroke="#2563eb" points="108.42,-370.6 108.42,-399.4 370.95,-399.4 370.95,-370.6 108.42,-370.6"/>
<text text-anchor="start" x="114.42" y="-380.8" font-family="Helvetica,sans-Serif" font-size="14.00">character varying NOT NULL</text>
<polygon fill="none" stroke="#2563eb" points="17.05,-341.8 17.05,-370.6 108.42,-370.6 108.42,-341.8 17.05,-341.8"/>
<text text-anchor="start" x="23.05" y="-352" font-family="Helvetica,sans-Serif" font-size="14.00">observed_at</text>
<polygon fill="none" stroke="#2563eb" points="108.42,-341.8 108.42,-370.6 370.95,-370.6 370.95,-341.8 108.42,-341.8"/>
<text text-anchor="start" x="114.42" y="-352" font-family="Helvetica,sans-Serif" font-size="14.00">timestamp without time zone NOT NULL</text>
<polygon fill="none" stroke="#2563eb" points="17.05,-313 17.05,-341.8 108.42,-341.8 108.42,-313 17.05,-313"/>
<text text-anchor="start" x="23.05" y="-323.2" font-family="Helvetica,sans-Serif" font-size="14.00">original</text>
<polygon fill="none" stroke="#2563eb" points="108.42,-313 108.42,-341.8 370.95,-341.8 370.95,-313 108.42,-313"/>
<text text-anchor="start" x="114.42" y="-323.2" font-family="Helvetica,sans-Serif" font-size="14.00">jsonb NOT NULL</text>
<polygon fill="none" stroke="#2563eb" points="17.05,-284.2 17.05,-313 108.42,-313 108.42,-284.2 17.05,-284.2"/>
<text text-anchor="start" x="23.05" y="-294.4" font-family="Helvetica,sans-Serif" font-size="14.00">inserted_at</text>
<polygon fill="none" stroke="#2563eb" points="108.42,-284.2 108.42,-313 370.95,-313 370.95,-284.2 108.42,-284.2"/>
<text text-anchor="start" x="114.42" y="-294.4" font-family="Helvetica,sans-Serif" font-size="14.00">timestamp without time zone NOT NULL</text>
<polygon fill="none" stroke="#2563eb" points="16.05,-283.2 16.05,-515.6 371.95,-515.6 371.95,-283.2 16.05,-283.2"/>
</g>
<!-- crm_sources&#45;&gt;crm_addresses -->
<g id="edge8" class="edge">
<title>crm_sources&#45;&gt;crm_addresses</title>
<path fill="none" stroke="#64748b" d="M295.64,-283.47C321.06,-254.72 348.01,-224.25 372.32,-196.76"/>
<polygon fill="#64748b" stroke="#64748b" points="373.99,-198.57 376.79,-191.71 370.32,-195.33 373.99,-198.57"/>
<text text-anchor="middle" x="383" y="-226.8" font-family="Helvetica,sans-Serif" font-size="10.00">address_id &#45;&gt; id</text>
</g>
<!-- crm_activities -->
<g id="node4" class="node">
<title>crm_activities</title>
<polygon fill="#dbeafe" stroke="none" points="17.1,-810.6 17.1,-839.4 360.9,-839.4 360.9,-810.6 17.1,-810.6"/>
<polygon fill="none" stroke="#2563eb" points="17.1,-810.6 17.1,-839.4 360.9,-839.4 360.9,-810.6 17.1,-810.6"/>
<text text-anchor="start" x="119.75" y="-821.8" font-family="Helvetica,sans-Serif" font-weight="bold" font-size="14.00">public.crm_activities</text>
<polygon fill="none" stroke="#2563eb" points="17.1,-781.8 17.1,-810.6 98.37,-810.6 98.37,-781.8 17.1,-781.8"/>
<text text-anchor="start" x="23.1" y="-792" font-family="Helvetica,sans-Serif" font-size="14.00">id PK</text>
<polygon fill="none" stroke="#2563eb" points="98.37,-781.8 98.37,-810.6 360.9,-810.6 360.9,-781.8 98.37,-781.8"/>
<text text-anchor="start" x="104.37" y="-792" font-family="Helvetica,sans-Serif" font-size="14.00">uuid NOT NULL</text>
<polygon fill="none" stroke="#2563eb" points="17.1,-753 17.1,-781.8 98.37,-781.8 98.37,-753 17.1,-753"/>
<text text-anchor="start" x="23.1" y="-763.2" font-family="Helvetica,sans-Serif" font-size="14.00">person_id</text>
<polygon fill="none" stroke="#2563eb" points="98.37,-753 98.37,-781.8 360.9,-781.8 360.9,-753 98.37,-753"/>
<text text-anchor="start" x="104.37" y="-763.2" font-family="Helvetica,sans-Serif" font-size="14.00">uuid NOT NULL</text>
<polygon fill="none" stroke="#2563eb" points="17.1,-724.2 17.1,-753 98.37,-753 98.37,-724.2 17.1,-724.2"/>
<text text-anchor="start" x="23.1" y="-734.4" font-family="Helvetica,sans-Serif" font-size="14.00">actor_id</text>
<polygon fill="none" stroke="#2563eb" points="98.37,-724.2 98.37,-753 360.9,-753 360.9,-724.2 98.37,-724.2"/>
<text text-anchor="start" x="104.37" y="-734.4" font-family="Helvetica,sans-Serif" font-size="14.00">character varying NOT NULL</text>
<polygon fill="none" stroke="#2563eb" points="17.1,-695.4 17.1,-724.2 98.37,-724.2 98.37,-695.4 17.1,-695.4"/>
<text text-anchor="start" x="23.1" y="-705.6" font-family="Helvetica,sans-Serif" font-size="14.00">action</text>
<polygon fill="none" stroke="#2563eb" points="98.37,-695.4 98.37,-724.2 360.9,-724.2 360.9,-695.4 98.37,-695.4"/>
<text text-anchor="start" x="104.37" y="-705.6" font-family="Helvetica,sans-Serif" font-size="14.00">character varying NOT NULL</text>
<polygon fill="none" stroke="#2563eb" points="17.1,-666.6 17.1,-695.4 98.37,-695.4 98.37,-666.6 17.1,-666.6"/>
<text text-anchor="start" x="23.1" y="-676.8" font-family="Helvetica,sans-Serif" font-size="14.00">details</text>
<polygon fill="none" stroke="#2563eb" points="98.37,-666.6 98.37,-695.4 360.9,-695.4 360.9,-666.6 98.37,-666.6"/>
<text text-anchor="start" x="104.37" y="-676.8" font-family="Helvetica,sans-Serif" font-size="14.00">jsonb NOT NULL</text>
<polygon fill="none" stroke="#2563eb" points="17.1,-637.8 17.1,-666.6 98.37,-666.6 98.37,-637.8 17.1,-637.8"/>
<text text-anchor="start" x="23.1" y="-648" font-family="Helvetica,sans-Serif" font-size="14.00">inserted_at</text>
<polygon fill="none" stroke="#2563eb" points="98.37,-637.8 98.37,-666.6 360.9,-666.6 360.9,-637.8 98.37,-637.8"/>
<text text-anchor="start" x="104.37" y="-648" font-family="Helvetica,sans-Serif" font-size="14.00">timestamp without time zone NOT NULL</text>
<polygon fill="none" stroke="#2563eb" points="16.1,-636.8 16.1,-840.4 361.9,-840.4 361.9,-636.8 16.1,-636.8"/>
</g>
<!-- crm_activities&#45;&gt;crm_people -->
<g id="edge1" class="edge">
<title>crm_activities&#45;&gt;crm_people</title>
<path fill="none" stroke="#64748b" d="M317.73,-636.89C358.55,-604.95 404.35,-569.12 447.72,-535.19"/>
<polygon fill="#64748b" stroke="#64748b" points="449.18,-537.15 453.18,-530.91 446.16,-533.29 449.18,-537.15"/>
<text text-anchor="middle" x="437.72" y="-566" font-family="Helvetica,sans-Serif" font-size="10.00">person_id &#45;&gt; id</text>
</g>
<!-- crm_merges -->
<g id="node5" class="node">
<title>crm_merges</title>
<polygon fill="#dbeafe" stroke="none" points="406.21,-839.4 406.21,-868.2 771.79,-868.2 771.79,-839.4 406.21,-839.4"/>
<polygon fill="none" stroke="#2563eb" points="406.21,-839.4 406.21,-868.2 771.79,-868.2 771.79,-839.4 406.21,-839.4"/>
<text text-anchor="start" x="524.81" y="-850.6" font-family="Helvetica,sans-Serif" font-weight="bold" font-size="14.00">public.crm_merges</text>
<polygon fill="none" stroke="#2563eb" points="406.21,-810.6 406.21,-839.4 509.26,-839.4 509.26,-810.6 406.21,-810.6"/>
<text text-anchor="start" x="412.21" y="-820.8" font-family="Helvetica,sans-Serif" font-size="14.00">id PK</text>
<polygon fill="none" stroke="#2563eb" points="509.26,-810.6 509.26,-839.4 771.79,-839.4 771.79,-810.6 509.26,-810.6"/>
<text text-anchor="start" x="515.26" y="-820.8" font-family="Helvetica,sans-Serif" font-size="14.00">uuid NOT NULL</text>
<polygon fill="none" stroke="#2563eb" points="406.21,-781.8 406.21,-810.6 509.26,-810.6 509.26,-781.8 406.21,-781.8"/>
<text text-anchor="start" x="412.21" y="-792" font-family="Helvetica,sans-Serif" font-size="14.00">person_id</text>
<polygon fill="none" stroke="#2563eb" points="509.26,-781.8 509.26,-810.6 771.79,-810.6 771.79,-781.8 509.26,-781.8"/>
<text text-anchor="start" x="515.26" y="-792" font-family="Helvetica,sans-Serif" font-size="14.00">uuid NOT NULL</text>
<polygon fill="none" stroke="#2563eb" points="406.21,-753 406.21,-781.8 509.26,-781.8 509.26,-753 406.21,-753"/>
<text text-anchor="start" x="412.21" y="-763.2" font-family="Helvetica,sans-Serif" font-size="14.00">actor_id</text>
<polygon fill="none" stroke="#2563eb" points="509.26,-753 509.26,-781.8 771.79,-781.8 771.79,-753 509.26,-753"/>
<text text-anchor="start" x="515.26" y="-763.2" font-family="Helvetica,sans-Serif" font-size="14.00">character varying NOT NULL</text>
<polygon fill="none" stroke="#2563eb" points="406.21,-724.2 406.21,-753 509.26,-753 509.26,-724.2 406.21,-724.2"/>
<text text-anchor="start" x="412.21" y="-734.4" font-family="Helvetica,sans-Serif" font-size="14.00">before</text>
<polygon fill="none" stroke="#2563eb" points="509.26,-724.2 509.26,-753 771.79,-753 771.79,-724.2 509.26,-724.2"/>
<text text-anchor="start" x="515.26" y="-734.4" font-family="Helvetica,sans-Serif" font-size="14.00">_jsonb NOT NULL</text>
<polygon fill="none" stroke="#2563eb" points="406.21,-695.4 406.21,-724.2 509.26,-724.2 509.26,-695.4 406.21,-695.4"/>
<text text-anchor="start" x="412.21" y="-705.6" font-family="Helvetica,sans-Serif" font-size="14.00">after_revisions</text>
<polygon fill="none" stroke="#2563eb" points="509.26,-695.4 509.26,-724.2 771.79,-724.2 771.79,-695.4 509.26,-695.4"/>
<text text-anchor="start" x="515.26" y="-705.6" font-family="Helvetica,sans-Serif" font-size="14.00">jsonb NOT NULL</text>
<polygon fill="none" stroke="#2563eb" points="406.21,-666.6 406.21,-695.4 509.26,-695.4 509.26,-666.6 406.21,-666.6"/>
<text text-anchor="start" x="412.21" y="-676.8" font-family="Helvetica,sans-Serif" font-size="14.00">resolutions</text>
<polygon fill="none" stroke="#2563eb" points="509.26,-666.6 509.26,-695.4 771.79,-695.4 771.79,-666.6 509.26,-666.6"/>
<text text-anchor="start" x="515.26" y="-676.8" font-family="Helvetica,sans-Serif" font-size="14.00">jsonb NOT NULL</text>
<polygon fill="none" stroke="#2563eb" points="406.21,-637.8 406.21,-666.6 509.26,-666.6 509.26,-637.8 406.21,-637.8"/>
<text text-anchor="start" x="412.21" y="-648" font-family="Helvetica,sans-Serif" font-size="14.00">undone_at</text>
<polygon fill="none" stroke="#2563eb" points="509.26,-637.8 509.26,-666.6 771.79,-666.6 771.79,-637.8 509.26,-637.8"/>
<text text-anchor="start" x="515.26" y="-648" font-family="Helvetica,sans-Serif" font-size="14.00">timestamp without time zone NULL</text>
<polygon fill="none" stroke="#2563eb" points="406.21,-609 406.21,-637.8 509.26,-637.8 509.26,-609 406.21,-609"/>
<text text-anchor="start" x="412.21" y="-619.2" font-family="Helvetica,sans-Serif" font-size="14.00">inserted_at</text>
<polygon fill="none" stroke="#2563eb" points="509.26,-609 509.26,-637.8 771.79,-637.8 771.79,-609 509.26,-609"/>
<text text-anchor="start" x="515.26" y="-619.2" font-family="Helvetica,sans-Serif" font-size="14.00">timestamp without time zone NOT NULL</text>
<polygon fill="none" stroke="#2563eb" points="405.21,-608 405.21,-869.2 772.79,-869.2 772.79,-608 405.21,-608"/>
</g>
<!-- crm_merges&#45;&gt;crm_people -->
<g id="edge5" class="edge">
<title>crm_merges&#45;&gt;crm_people</title>
<path fill="none" stroke="#64748b" d="M600.9,-608.19C603.01,-585.18 605.22,-561.14 607.36,-537.92"/>
<polygon fill="#64748b" stroke="#64748b" points="609.77,-538.44 607.97,-531.25 604.89,-537.99 609.77,-538.44"/>
<text text-anchor="middle" x="637.72" y="-566" font-family="Helvetica,sans-Serif" font-size="10.00">person_id &#45;&gt; id</text>
</g>
<!-- crm_contact_links -->
<g id="node6" class="node">
<title>crm_contact_links</title>
<polygon fill="#dbeafe" stroke="none" points="816.7,-796.2 816.7,-825 1161.3,-825 1161.3,-796.2 816.7,-796.2"/>
<polygon fill="none" stroke="#2563eb" points="816.7,-796.2 816.7,-825 1161.3,-825 1161.3,-796.2 816.7,-796.2"/>
<text text-anchor="start" x="904.97" y="-807.4" font-family="Helvetica,sans-Serif" font-weight="bold" font-size="14.00">public.crm_contact_links</text>
<polygon fill="none" stroke="#2563eb" points="816.7,-767.4 816.7,-796.2 898.77,-796.2 898.77,-767.4 816.7,-767.4"/>
<text text-anchor="start" x="822.7" y="-777.6" font-family="Helvetica,sans-Serif" font-size="14.00">id PK</text>
<polygon fill="none" stroke="#2563eb" points="898.77,-767.4 898.77,-796.2 1161.3,-796.2 1161.3,-767.4 898.77,-767.4"/>
<text text-anchor="start" x="904.77" y="-777.6" font-family="Helvetica,sans-Serif" font-size="14.00">uuid NOT NULL</text>
<polygon fill="none" stroke="#2563eb" points="816.7,-738.6 816.7,-767.4 898.77,-767.4 898.77,-738.6 816.7,-738.6"/>
<text text-anchor="start" x="822.7" y="-748.8" font-family="Helvetica,sans-Serif" font-size="14.00">contact_id</text>
<polygon fill="none" stroke="#2563eb" points="898.77,-738.6 898.77,-767.4 1161.3,-767.4 1161.3,-738.6 898.77,-738.6"/>
<text text-anchor="start" x="904.77" y="-748.8" font-family="Helvetica,sans-Serif" font-size="14.00">uuid NOT NULL</text>
<polygon fill="none" stroke="#2563eb" points="816.7,-709.8 816.7,-738.6 898.77,-738.6 898.77,-709.8 816.7,-709.8"/>
<text text-anchor="start" x="822.7" y="-720" font-family="Helvetica,sans-Serif" font-size="14.00">person_id</text>
<polygon fill="none" stroke="#2563eb" points="898.77,-709.8 898.77,-738.6 1161.3,-738.6 1161.3,-709.8 898.77,-709.8"/>
<text text-anchor="start" x="904.77" y="-720" font-family="Helvetica,sans-Serif" font-size="14.00">uuid NOT NULL</text>
<polygon fill="none" stroke="#2563eb" points="816.7,-681 816.7,-709.8 898.77,-709.8 898.77,-681 816.7,-681"/>
<text text-anchor="start" x="822.7" y="-691.2" font-family="Helvetica,sans-Serif" font-size="14.00">inserted_at</text>
<polygon fill="none" stroke="#2563eb" points="898.77,-681 898.77,-709.8 1161.3,-709.8 1161.3,-681 898.77,-681"/>
<text text-anchor="start" x="904.77" y="-691.2" font-family="Helvetica,sans-Serif" font-size="14.00">timestamp without time zone NOT NULL</text>
<polygon fill="none" stroke="#2563eb" points="816.7,-652.2 816.7,-681 898.77,-681 898.77,-652.2 816.7,-652.2"/>
<text text-anchor="start" x="822.7" y="-662.4" font-family="Helvetica,sans-Serif" font-size="14.00">updated_at</text>
<polygon fill="none" stroke="#2563eb" points="898.77,-652.2 898.77,-681 1161.3,-681 1161.3,-652.2 898.77,-652.2"/>
<text text-anchor="start" x="904.77" y="-662.4" font-family="Helvetica,sans-Serif" font-size="14.00">timestamp without time zone NOT NULL</text>
<polygon fill="none" stroke="#2563eb" points="815.7,-651.2 815.7,-826 1162.3,-826 1162.3,-651.2 815.7,-651.2"/>
</g>
<!-- crm_contact_links&#45;&gt;crm_people -->
<g id="edge4" class="edge">
<title>crm_contact_links&#45;&gt;crm_people</title>
<path fill="none" stroke="#64748b" d="M894.45,-651.2C855.99,-616.05 810.61,-574.59 767.96,-535.61"/>
<polygon fill="#64748b" stroke="#64748b" points="769.62,-533.81 762.8,-530.89 766.31,-537.42 769.62,-533.81"/>
<text text-anchor="middle" x="837.72" y="-566" font-family="Helvetica,sans-Serif" font-size="10.00">person_id &#45;&gt; id</text>
</g>
<!-- contacts -->
<g id="node7" class="node">
<title>contacts</title>
<polygon fill="#fef3c7" stroke="none" points="1186.56,-397 1186.56,-425.8 1361.44,-425.8 1361.44,-397 1186.56,-397"/>
<polygon fill="none" stroke="#d97706" points="1186.56,-397 1186.56,-425.8 1361.44,-425.8 1361.44,-397 1186.56,-397"/>
<text text-anchor="start" x="1214.09" y="-408.2" font-family="Helvetica,sans-Serif" font-weight="bold" font-size="14.00">external: contacts</text>
<polygon fill="none" stroke="#d97706" points="1186.56,-373 1186.56,-397 1361.44,-397 1361.44,-373 1186.56,-373"/>
<text text-anchor="start" x="1192.56" y="-382" font-family="Helvetica,sans-Serif" font-size="10.00">other fields and relationships omitted</text>
<polygon fill="none" stroke="#d97706" points="1185.56,-372 1185.56,-426.8 1362.44,-426.8 1362.44,-372 1185.56,-372"/>
</g>
<!-- crm_contact_links&#45;&gt;contacts -->
<g id="edge3" class="edge">
<title>crm_contact_links&#45;&gt;contacts</title>
<path fill="none" stroke="#d97706" stroke-width="1.5" stroke-dasharray="5,2" d="M1072.65,-651.23C1106.92,-614.69 1146.35,-571.13 1180,-530 1205.79,-498.47 1232.85,-460.58 1251.28,-433.93"/>
<polygon fill="#d97706" stroke="#d97706" stroke-width="1.5" points="1253.24,-435.41 1255.19,-428.26 1249.2,-432.63 1253.24,-435.41"/>
<text text-anchor="middle" x="1184.33" y="-566" font-family="Helvetica,sans-Serif" font-size="10.00">contact_id &#45;&gt; id</text>
</g>
</g>
</svg>
